<?xml version="1.0" encoding="UTF-8"?>
<svg id="Capa_1" data-name="Capa 1" xmlns="http://www.w3.org/2000/svg" viewBox="0 0 1229.17 667.37">
  <defs>
    <style>
      .cls-1 {
        fill: #ecf247;
      }
    </style>
  </defs>
  <path class="cls-1" d="M802.39,492.02h-59.42v-183.21c0-70.97-57.77-128.74-128.74-128.74-70.97,0-128.74,57.77-128.74,128.74s57.77,128.74,128.74,128.74c1.92,0,3.83-.05,5.75-.13l-47.42-53.94c-11.06-12.58-9.83-31.74,2.74-42.8,12.58-11.06,31.74-9.83,42.8,2.75l103.07,117.24-101.56,111.84c-11.26,12.4-30.44,13.32-42.84,2.06-12.4-11.26-13.32-30.44-2.06-42.84l31.72-34.94c-100.12-4.1-180.37-86.89-180.37-187.99s84.44-188.16,188.16-188.16c50.21,0,95.91,19.79,129.69,51.98l-.94-51.98h59.42v371.37Z"/>
</svg>