<?xml version="1.0" encoding="UTF-8"?>
<svg id="Capa_1" data-name="Capa 1" xmlns="http://www.w3.org/2000/svg" viewBox="0 0 1380.46 502.6">
  <defs>
    <style>
      .cls-1 {
        fill: #ecf247;
      }
    </style>
  </defs>
  <path class="cls-1" d="M263.22,343.47l88.5-183.19h-32.58l-66.02,134.7-63.28-134.7h-32.36l85.27,183.19h20.46Z"/>
  <path class="cls-1" d="M753.48,343.31h-29.32v-92.96c0-35.03-28.51-63.54-63.54-63.54s-63.54,28.51-63.54,63.54v90.75h-29.33v-90.75c0-51.19,41.67-92.87,92.87-92.87s92.86,41.68,92.86,92.87v92.96Z"/>
  <path class="cls-1" d="M865.44,303.1c-13,12.54-26.49,16.75-37.96,11.89-8.57-3.65-14.8-12.19-14.8-20.33v-67.94h36.46v-29.33h-36.46v-37.11h-29.32v134.34c0,20.01,13.13,39.04,32.65,47.34,6.87,2.93,14.01,4.37,21.25,4.37,16.52,0,33.46-7.56,48.55-22.12l-20.36-21.11Z"/>
  <path class="cls-1" d="M942.6,345.26h-29.33v-91.98c0-26.03,10.69-50.47,29.36-67.06,19.19-17.07,44.25-24.8,74.42-22.87l-1.86,29.26c-22.09-1.43-39.95,3.81-53.08,15.51-12.42,11.01-19.52,27.47-19.52,45.13v92.02Z"/>
  <path class="cls-1" d="M442.6,346.47h-.03.01s.02,0,.02,0ZM535.47,269.89h0s0,74.13,0,74.13h-29.33v-90.42c0-35.03-28.51-63.54-63.54-63.54-35.03,0-63.54,28.51-63.54,63.54s28.51,63.54,63.54,63.54c11.08,0,22-2.9,31.51-8.34l14.56,25.45c-13.97,8.01-29.9,12.21-46.09,12.21-51.18-.01-92.84-41.68-92.84-92.86,0-51.19,41.67-92.87,92.86-92.87,24.78,0,47.33,9.77,64,25.65l-.46-25.65h29.33v109.16Z"/>
  <path class="cls-1" d="M1222.99,253.34c0,.09,0,.18,0,.27v90.42h-29.33v-90.42c0-35.03-28.51-63.54-63.54-63.54s-63.54,28.51-63.54,63.54,28.51,63.54,63.54,63.54c.95,0,1.89-.03,2.83-.07l-23.4-26.61c-5.46-6.21-4.85-15.66,1.36-21.12,6.21-5.46,15.66-4.85,21.12,1.36l50.87,57.86-50.12,55.2c-5.56,6.12-15.03,6.57-21.14,1.02-6.12-5.56-6.57-15.02-1.01-21.14l15.66-17.25c-49.42-2.02-89.02-42.87-89.02-92.78s41.67-92.87,92.86-92.87c24.78,0,47.33,9.77,64,25.65l-.46-25.65h29.33v92.6Z"/>
</svg>